<mxfile host="app.diagrams.net" agent="Mozilla/5.0 (Macintosh; Intel Mac OS X 10_15_7) AppleWebKit/537.36 (KHTML, like Gecko) Chrome/131.0.0.0 Safari/537.36" version="26.0.8">
  <diagram name="Page-1" id="uXDkPBCT3kz6zS12avih">
    <mxGraphModel dx="533" dy="494" grid="1" gridSize="10" guides="1" tooltips="1" connect="1" arrows="1" fold="1" page="1" pageScale="1" pageWidth="850" pageHeight="1100" math="0" shadow="0">
      <root>
        <mxCell id="0" />
        <mxCell id="1" parent="0" />
        <mxCell id="fxHwsIN__3KsOwAVJdF0-2" value="" style="outlineConnect=0;dashed=0;verticalLabelPosition=bottom;verticalAlign=top;align=center;html=1;shape=mxgraph.aws3.cloudfront;fillColor=#F58536;gradientColor=none;" vertex="1" parent="1">
          <mxGeometry x="140" y="276" width="50" height="50" as="geometry" />
        </mxCell>
        <mxCell id="fxHwsIN__3KsOwAVJdF0-66" style="edgeStyle=elbowEdgeStyle;rounded=0;orthogonalLoop=1;jettySize=auto;elbow=vertical;html=1;" edge="1" parent="1" source="fxHwsIN__3KsOwAVJdF0-5">
          <mxGeometry relative="1" as="geometry">
            <mxPoint x="260" y="300" as="targetPoint" />
          </mxGeometry>
        </mxCell>
        <mxCell id="fxHwsIN__3KsOwAVJdF0-5" value="" style="sketch=0;points=[[0,0,0],[0.25,0,0],[0.5,0,0],[0.75,0,0],[1,0,0],[0,1,0],[0.25,1,0],[0.5,1,0],[0.75,1,0],[1,1,0],[0,0.25,0],[0,0.5,0],[0,0.75,0],[1,0.25,0],[1,0.5,0],[1,0.75,0]];outlineConnect=0;fontColor=#232F3E;fillColor=#E7157B;strokeColor=#ffffff;dashed=0;verticalLabelPosition=bottom;verticalAlign=top;align=center;html=1;fontSize=12;fontStyle=0;aspect=fixed;shape=mxgraph.aws4.resourceIcon;resIcon=mxgraph.aws4.api_gateway;" vertex="1" parent="1">
          <mxGeometry x="260" y="282" width="38" height="38" as="geometry" />
        </mxCell>
        <mxCell id="fxHwsIN__3KsOwAVJdF0-7" value="" style="outlineConnect=0;dashed=0;verticalLabelPosition=bottom;verticalAlign=top;align=center;html=1;shape=mxgraph.aws3.lambda;fillColor=#F58534;gradientColor=none;" vertex="1" parent="1">
          <mxGeometry x="400" y="272.5" width="40" height="45.5" as="geometry" />
        </mxCell>
        <mxCell id="fxHwsIN__3KsOwAVJdF0-10" value="" style="edgeStyle=orthogonalEdgeStyle;html=1;endArrow=block;elbow=vertical;startArrow=none;endFill=1;strokeColor=#545B64;rounded=0;entryX=0;entryY=0.5;entryDx=0;entryDy=0;entryPerimeter=0;exitX=1;exitY=0.5;exitDx=0;exitDy=0;exitPerimeter=0;" edge="1" parent="1" source="fxHwsIN__3KsOwAVJdF0-1" target="fxHwsIN__3KsOwAVJdF0-2">
          <mxGeometry width="100" relative="1" as="geometry">
            <mxPoint x="50" y="299.5" as="sourcePoint" />
            <mxPoint x="100" y="299.5" as="targetPoint" />
            <Array as="points" />
          </mxGeometry>
        </mxCell>
        <mxCell id="fxHwsIN__3KsOwAVJdF0-13" value="" style="outlineConnect=0;dashed=0;verticalLabelPosition=bottom;verticalAlign=top;align=center;html=1;shape=mxgraph.aws3.waf;fillColor=#759C3E;gradientColor=none;" vertex="1" parent="1">
          <mxGeometry x="220" y="401" width="40" height="40" as="geometry" />
        </mxCell>
        <mxCell id="fxHwsIN__3KsOwAVJdF0-14" value="" style="outlineConnect=0;dashed=0;verticalLabelPosition=bottom;verticalAlign=top;align=center;html=1;shape=mxgraph.aws3.cognito;fillColor=#AD688B;gradientColor=none;" vertex="1" parent="1">
          <mxGeometry x="300.63" y="402" width="40" height="40" as="geometry" />
        </mxCell>
        <mxCell id="fxHwsIN__3KsOwAVJdF0-15" value="" style="edgeStyle=orthogonalEdgeStyle;html=1;endArrow=block;elbow=vertical;startArrow=none;endFill=1;strokeColor=#545B64;rounded=0;entryX=0.25;entryY=1;entryDx=0;entryDy=0;entryPerimeter=0;exitX=0.5;exitY=0;exitDx=0;exitDy=0;exitPerimeter=0;" edge="1" parent="1" source="fxHwsIN__3KsOwAVJdF0-13" target="fxHwsIN__3KsOwAVJdF0-5">
          <mxGeometry width="100" relative="1" as="geometry">
            <mxPoint x="180" y="360" as="sourcePoint" />
            <mxPoint x="220" y="340" as="targetPoint" />
          </mxGeometry>
        </mxCell>
        <mxCell id="fxHwsIN__3KsOwAVJdF0-19" value="" style="edgeStyle=orthogonalEdgeStyle;html=1;endArrow=block;elbow=vertical;startArrow=none;endFill=1;strokeColor=#545B64;rounded=0;exitX=1;exitY=0.79;exitDx=0;exitDy=0;exitPerimeter=0;entryX=0;entryY=0.5;entryDx=0;entryDy=0;entryPerimeter=0;" edge="1" parent="1" source="fxHwsIN__3KsOwAVJdF0-7" target="fxHwsIN__3KsOwAVJdF0-18">
          <mxGeometry width="100" relative="1" as="geometry">
            <mxPoint x="330" y="380.5" as="sourcePoint" />
            <mxPoint x="400" y="380.5" as="targetPoint" />
            <Array as="points">
              <mxPoint x="440" y="381" />
            </Array>
          </mxGeometry>
        </mxCell>
        <mxCell id="fxHwsIN__3KsOwAVJdF0-22" value="" style="edgeStyle=orthogonalEdgeStyle;html=1;endArrow=block;elbow=vertical;startArrow=none;endFill=1;strokeColor=#545B64;rounded=0;exitX=0.5;exitY=0;exitDx=0;exitDy=0;exitPerimeter=0;entryX=0;entryY=0.5;entryDx=0;entryDy=0;entryPerimeter=0;" edge="1" parent="1" source="fxHwsIN__3KsOwAVJdF0-7" target="fxHwsIN__3KsOwAVJdF0-9">
          <mxGeometry width="100" relative="1" as="geometry">
            <mxPoint x="350" y="219.5" as="sourcePoint" />
            <mxPoint x="400" y="219.5" as="targetPoint" />
            <Array as="points">
              <mxPoint x="420" y="220" />
            </Array>
          </mxGeometry>
        </mxCell>
        <mxCell id="fxHwsIN__3KsOwAVJdF0-28" value="" style="edgeStyle=orthogonalEdgeStyle;html=1;endArrow=block;elbow=vertical;startArrow=none;endFill=1;strokeColor=#545B64;rounded=0;entryX=0.5;entryY=0;entryDx=0;entryDy=0;entryPerimeter=0;" edge="1" parent="1" source="fxHwsIN__3KsOwAVJdF0-9" target="fxHwsIN__3KsOwAVJdF0-27">
          <mxGeometry width="100" relative="1" as="geometry">
            <mxPoint x="441" y="219.5" as="sourcePoint" />
            <mxPoint x="520" y="270" as="targetPoint" />
          </mxGeometry>
        </mxCell>
        <mxCell id="fxHwsIN__3KsOwAVJdF0-30" value="" style="edgeStyle=orthogonalEdgeStyle;html=1;endArrow=block;elbow=vertical;startArrow=none;endFill=1;strokeColor=#545B64;rounded=0;entryX=0.5;entryY=1;entryDx=0;entryDy=0;entryPerimeter=0;" edge="1" parent="1" source="fxHwsIN__3KsOwAVJdF0-18" target="fxHwsIN__3KsOwAVJdF0-27">
          <mxGeometry width="100" relative="1" as="geometry">
            <mxPoint x="441" y="380" as="sourcePoint" />
            <mxPoint x="520" y="431" as="targetPoint" />
          </mxGeometry>
        </mxCell>
        <mxCell id="fxHwsIN__3KsOwAVJdF0-33" style="edgeStyle=elbowEdgeStyle;rounded=0;orthogonalLoop=1;jettySize=auto;elbow=vertical;html=1;exitX=1;exitY=0.5;exitDx=0;exitDy=0;exitPerimeter=0;" edge="1" parent="1" source="fxHwsIN__3KsOwAVJdF0-27" target="fxHwsIN__3KsOwAVJdF0-31">
          <mxGeometry relative="1" as="geometry">
            <mxPoint x="640" y="300" as="sourcePoint" />
          </mxGeometry>
        </mxCell>
        <mxCell id="fxHwsIN__3KsOwAVJdF0-31" value="" style="sketch=0;points=[[0,0,0],[0.25,0,0],[0.5,0,0],[0.75,0,0],[1,0,0],[0,1,0],[0.25,1,0],[0.5,1,0],[0.75,1,0],[1,1,0],[0,0.25,0],[0,0.5,0],[0,0.75,0],[1,0.25,0],[1,0.5,0],[1,0.75,0]];outlineConnect=0;fontColor=#232F3E;fillColor=#8C4FFF;strokeColor=#ffffff;dashed=0;verticalLabelPosition=bottom;verticalAlign=top;align=center;html=1;fontSize=12;fontStyle=0;aspect=fixed;shape=mxgraph.aws4.resourceIcon;resIcon=mxgraph.aws4.quicksight;" vertex="1" parent="1">
          <mxGeometry x="760" y="282" width="40" height="40" as="geometry" />
        </mxCell>
        <mxCell id="fxHwsIN__3KsOwAVJdF0-35" value="" style="edgeStyle=orthogonalEdgeStyle;html=1;endArrow=block;elbow=vertical;startArrow=none;endFill=1;strokeColor=#545B64;rounded=0;entryX=0;entryY=0.5;entryDx=0;entryDy=0;entryPerimeter=0;" edge="1" parent="1" source="fxHwsIN__3KsOwAVJdF0-23" target="fxHwsIN__3KsOwAVJdF0-7">
          <mxGeometry width="100" relative="1" as="geometry">
            <mxPoint x="240" y="219.5" as="sourcePoint" />
            <mxPoint x="340" y="219.5" as="targetPoint" />
          </mxGeometry>
        </mxCell>
        <mxCell id="fxHwsIN__3KsOwAVJdF0-36" value="" style="sketch=0;points=[[0,0,0],[0.25,0,0],[0.5,0,0],[0.75,0,0],[1,0,0],[0,1,0],[0.25,1,0],[0.5,1,0],[0.75,1,0],[1,1,0],[0,0.25,0],[0,0.5,0],[0,0.75,0],[1,0.25,0],[1,0.5,0],[1,0.75,0]];outlineConnect=0;fontColor=#232F3E;fillColor=#E7157B;strokeColor=#ffffff;dashed=0;verticalLabelPosition=bottom;verticalAlign=top;align=center;html=1;fontSize=12;fontStyle=0;aspect=fixed;shape=mxgraph.aws4.resourceIcon;resIcon=mxgraph.aws4.sns;" vertex="1" parent="1">
          <mxGeometry x="400" y="410" width="39" height="39" as="geometry" />
        </mxCell>
        <mxCell id="fxHwsIN__3KsOwAVJdF0-37" value="" style="edgeStyle=orthogonalEdgeStyle;html=1;endArrow=block;elbow=vertical;startArrow=none;endFill=1;strokeColor=#545B64;rounded=0;exitX=0.5;exitY=1;exitDx=0;exitDy=0;exitPerimeter=0;entryX=0.5;entryY=0;entryDx=0;entryDy=0;entryPerimeter=0;" edge="1" parent="1" source="fxHwsIN__3KsOwAVJdF0-7" target="fxHwsIN__3KsOwAVJdF0-36">
          <mxGeometry width="100" relative="1" as="geometry">
            <mxPoint x="409.98" y="290" as="sourcePoint" />
            <mxPoint x="400" y="400" as="targetPoint" />
            <Array as="points">
              <mxPoint x="420" y="402" />
            </Array>
          </mxGeometry>
        </mxCell>
        <mxCell id="fxHwsIN__3KsOwAVJdF0-27" value="" style="outlineConnect=0;dashed=0;verticalLabelPosition=bottom;verticalAlign=top;align=center;html=1;shape=mxgraph.aws3.glue;fillColor=#F58534;gradientColor=none;" vertex="1" parent="1">
          <mxGeometry x="630" y="277" width="50" height="45" as="geometry" />
        </mxCell>
        <mxCell id="fxHwsIN__3KsOwAVJdF0-42" value="" style="outlineConnect=0;dashed=0;verticalLabelPosition=bottom;verticalAlign=top;align=center;html=1;shape=mxgraph.aws3.iam;fillColor=#759C3E;gradientColor=none;" vertex="1" parent="1">
          <mxGeometry x="520" y="275" width="36" height="40.5" as="geometry" />
        </mxCell>
        <mxCell id="fxHwsIN__3KsOwAVJdF0-43" value="" style="edgeStyle=orthogonalEdgeStyle;html=1;endArrow=block;elbow=vertical;startArrow=none;endFill=1;strokeColor=#545B64;rounded=0;exitX=0.26;exitY=0.5;exitDx=0;exitDy=0;exitPerimeter=0;entryX=1;entryY=0.5;entryDx=0;entryDy=0;entryPerimeter=0;" edge="1" parent="1" source="fxHwsIN__3KsOwAVJdF0-42" target="fxHwsIN__3KsOwAVJdF0-7">
          <mxGeometry width="100" relative="1" as="geometry">
            <mxPoint x="430" y="300" as="sourcePoint" />
            <mxPoint x="380" y="300" as="targetPoint" />
          </mxGeometry>
        </mxCell>
        <mxCell id="fxHwsIN__3KsOwAVJdF0-9" value="" style="outlineConnect=0;dashed=0;verticalLabelPosition=bottom;verticalAlign=top;align=center;html=1;shape=mxgraph.aws3.dynamo_db;fillColor=#2E73B8;gradientColor=none;" vertex="1" parent="1">
          <mxGeometry x="517.5" y="200" width="41" height="40" as="geometry" />
        </mxCell>
        <mxCell id="fxHwsIN__3KsOwAVJdF0-46" value="" style="edgeStyle=orthogonalEdgeStyle;html=1;endArrow=block;elbow=vertical;startArrow=none;endFill=1;strokeColor=#545B64;rounded=0;entryX=0.5;entryY=0;entryDx=0;entryDy=0;entryPerimeter=0;exitX=1;exitY=0.5;exitDx=0;exitDy=0;exitPerimeter=0;" edge="1" parent="1" source="fxHwsIN__3KsOwAVJdF0-53" target="fxHwsIN__3KsOwAVJdF0-9">
          <mxGeometry width="100" relative="1" as="geometry">
            <mxPoint x="361" y="139.47000000000003" as="sourcePoint" />
            <mxPoint x="461" y="139.47000000000003" as="targetPoint" />
          </mxGeometry>
        </mxCell>
        <mxCell id="fxHwsIN__3KsOwAVJdF0-48" value="" style="edgeStyle=orthogonalEdgeStyle;html=1;endArrow=block;elbow=vertical;startArrow=none;endFill=1;strokeColor=#545B64;rounded=0;exitX=0.5;exitY=1;exitDx=0;exitDy=0;exitPerimeter=0;entryX=0.5;entryY=0;entryDx=0;entryDy=0;entryPerimeter=0;" edge="1" parent="1" source="fxHwsIN__3KsOwAVJdF0-23" target="fxHwsIN__3KsOwAVJdF0-5">
          <mxGeometry width="100" relative="1" as="geometry">
            <mxPoint x="251.15" y="240" as="sourcePoint" />
            <mxPoint x="251.15" y="280" as="targetPoint" />
          </mxGeometry>
        </mxCell>
        <mxCell id="fxHwsIN__3KsOwAVJdF0-50" value="" style="edgeStyle=orthogonalEdgeStyle;html=1;endArrow=block;elbow=vertical;startArrow=none;endFill=1;strokeColor=#545B64;rounded=0;entryX=0.5;entryY=1;entryDx=0;entryDy=0;entryPerimeter=0;" edge="1" parent="1" source="fxHwsIN__3KsOwAVJdF0-42" target="fxHwsIN__3KsOwAVJdF0-9">
          <mxGeometry width="100" relative="1" as="geometry">
            <mxPoint x="443" y="270" as="sourcePoint" />
            <mxPoint x="443" y="240" as="targetPoint" />
          </mxGeometry>
        </mxCell>
        <mxCell id="fxHwsIN__3KsOwAVJdF0-18" value="" style="outlineConnect=0;dashed=0;verticalLabelPosition=bottom;verticalAlign=top;align=center;html=1;shape=mxgraph.aws3.rds;fillColor=#2E73B8;gradientColor=none;" vertex="1" parent="1">
          <mxGeometry x="517.5" y="361" width="40" height="40" as="geometry" />
        </mxCell>
        <mxCell id="fxHwsIN__3KsOwAVJdF0-52" value="" style="edgeStyle=orthogonalEdgeStyle;html=1;endArrow=block;elbow=vertical;startArrow=none;endFill=1;strokeColor=#545B64;rounded=0;entryX=0.5;entryY=0;entryDx=0;entryDy=0;entryPerimeter=0;exitX=0.5;exitY=1;exitDx=0;exitDy=0;exitPerimeter=0;" edge="1" parent="1" source="fxHwsIN__3KsOwAVJdF0-42" target="fxHwsIN__3KsOwAVJdF0-18">
          <mxGeometry width="100" relative="1" as="geometry">
            <mxPoint x="443" y="320" as="sourcePoint" />
            <mxPoint x="442.8" y="357" as="targetPoint" />
          </mxGeometry>
        </mxCell>
        <mxCell id="fxHwsIN__3KsOwAVJdF0-53" value="" style="sketch=0;points=[[0,0,0],[0.25,0,0],[0.5,0,0],[0.75,0,0],[1,0,0],[0,1,0],[0.25,1,0],[0.5,1,0],[0.75,1,0],[1,1,0],[0,0.25,0],[0,0.5,0],[0,0.75,0],[1,0.25,0],[1,0.5,0],[1,0.75,0]];outlineConnect=0;fontColor=#232F3E;fillColor=#7AA116;strokeColor=#ffffff;dashed=0;verticalLabelPosition=bottom;verticalAlign=top;align=center;html=1;fontSize=12;fontStyle=0;aspect=fixed;shape=mxgraph.aws4.resourceIcon;resIcon=mxgraph.aws4.iot_core;" vertex="1" parent="1">
          <mxGeometry x="385" y="120" width="40" height="40" as="geometry" />
        </mxCell>
        <mxCell id="fxHwsIN__3KsOwAVJdF0-56" value="" style="edgeStyle=orthogonalEdgeStyle;html=1;endArrow=block;elbow=vertical;startArrow=none;endFill=1;strokeColor=#545B64;rounded=0;entryX=0;entryY=0.21;entryDx=0;entryDy=0;entryPerimeter=0;exitX=0;exitY=0.5;exitDx=0;exitDy=0;exitPerimeter=0;" edge="1" parent="1" source="fxHwsIN__3KsOwAVJdF0-53" target="fxHwsIN__3KsOwAVJdF0-7">
          <mxGeometry width="100" relative="1" as="geometry">
            <mxPoint x="380" y="160" as="sourcePoint" />
            <mxPoint x="390" y="190" as="targetPoint" />
            <Array as="points">
              <mxPoint x="370" y="140" />
              <mxPoint x="370" y="282" />
            </Array>
          </mxGeometry>
        </mxCell>
        <mxCell id="fxHwsIN__3KsOwAVJdF0-23" value="" style="outlineConnect=0;dashed=0;verticalLabelPosition=bottom;verticalAlign=top;align=center;html=1;shape=mxgraph.aws3.cloudwatch;fillColor=#759C3E;gradientColor=none;" vertex="1" parent="1">
          <mxGeometry x="257.38" y="200" width="43.25" height="40" as="geometry" />
        </mxCell>
        <mxCell id="fxHwsIN__3KsOwAVJdF0-1" value="" style="sketch=0;points=[[0,0,0],[0.25,0,0],[0.5,0,0],[0.75,0,0],[1,0,0],[0,1,0],[0.25,1,0],[0.5,1,0],[0.75,1,0],[1,1,0],[0,0.25,0],[0,0.5,0],[0,0.75,0],[1,0.25,0],[1,0.5,0],[1,0.75,0]];outlineConnect=0;fontColor=#232F3E;fillColor=#7AA116;strokeColor=#ffffff;dashed=0;verticalLabelPosition=bottom;verticalAlign=top;align=center;html=1;fontSize=12;fontStyle=0;aspect=fixed;shape=mxgraph.aws4.resourceIcon;resIcon=mxgraph.aws4.s3;" vertex="1" parent="1">
          <mxGeometry x="50" y="282" width="40" height="40" as="geometry" />
        </mxCell>
        <mxCell id="fxHwsIN__3KsOwAVJdF0-61" value="" style="edgeStyle=orthogonalEdgeStyle;html=1;endArrow=block;elbow=vertical;startArrow=none;endFill=1;strokeColor=#545B64;rounded=0;entryX=0.75;entryY=1;entryDx=0;entryDy=0;entryPerimeter=0;exitX=0.5;exitY=0;exitDx=0;exitDy=0;exitPerimeter=0;" edge="1" parent="1" source="fxHwsIN__3KsOwAVJdF0-14" target="fxHwsIN__3KsOwAVJdF0-5">
          <mxGeometry width="100" relative="1" as="geometry">
            <mxPoint x="350" y="340" as="sourcePoint" />
            <mxPoint x="250" y="340" as="targetPoint" />
          </mxGeometry>
        </mxCell>
        <mxCell id="fxHwsIN__3KsOwAVJdF0-64" value="" style="edgeStyle=orthogonalEdgeStyle;html=1;endArrow=block;elbow=vertical;startArrow=none;endFill=1;strokeColor=#545B64;rounded=0;entryX=0;entryY=0.79;entryDx=0;entryDy=0;entryPerimeter=0;" edge="1" parent="1" target="fxHwsIN__3KsOwAVJdF0-7">
          <mxGeometry width="100" relative="1" as="geometry">
            <mxPoint x="298" y="301.62" as="sourcePoint" />
            <mxPoint x="398" y="301.62" as="targetPoint" />
          </mxGeometry>
        </mxCell>
        <mxCell id="fxHwsIN__3KsOwAVJdF0-65" value="" style="edgeStyle=orthogonalEdgeStyle;html=1;endArrow=block;elbow=vertical;startArrow=none;endFill=1;strokeColor=#545B64;rounded=0;exitX=1;exitY=0.5;exitDx=0;exitDy=0;exitPerimeter=0;entryX=0;entryY=0.5;entryDx=0;entryDy=0;entryPerimeter=0;" edge="1" parent="1" source="fxHwsIN__3KsOwAVJdF0-2" target="fxHwsIN__3KsOwAVJdF0-5">
          <mxGeometry width="100" relative="1" as="geometry">
            <mxPoint x="198" y="301.72" as="sourcePoint" />
            <mxPoint x="260" y="302" as="targetPoint" />
          </mxGeometry>
        </mxCell>
      </root>
    </mxGraphModel>
  </diagram>
</mxfile>
